<svg id="svg" version="1.1" xmlns="http://www.w3.org/2000/svg" xmlns:xlink="http://www.w3.org/1999/xlink" width="400" height="374.57212713936434" viewBox="0, 0, 400,374.57212713936434"><g id="svgg"><path id="path0" d="M94.988 64.693 C 90.160 65.869,85.663 69.469,83.522 73.870 C 81.656 77.705,81.672 77.526,81.667 95.049 L 81.663 110.513 121.172 110.513 C 165.363 110.513,162.785 110.417,167.431 112.247 C 187.477 120.145,190.343 147.244,172.378 159.030 C 165.942 163.253,163.924 163.570,143.442 163.570 L 127.752 163.570 104.707 186.613 L 81.663 209.657 81.663 234.066 L 81.663 258.476 94.682 258.377 L 107.702 258.279 110.027 257.652 C 119.715 255.043,126.421 247.459,127.603 237.775 C 127.767 236.433,127.872 230.542,127.872 222.677 L 127.873 209.780 144.071 209.779 C 165.477 209.778,170.043 209.318,179.584 206.201 C 233.153 188.703,248.160 121.838,207.119 83.523 C 196.549 73.654,183.728 67.549,167.971 64.880 C 164.374 64.270,97.426 64.099,94.988 64.693 M82.152 279.328 L 82.152 297.555 91.748 297.551 C 104.602 297.545,105.786 297.279,107.454 294.018 L 108.191 292.578 108.260 279.877 C 108.346 264.203,108.242 263.673,104.724 261.946 L 103.301 261.247 92.726 261.174 L 82.152 261.101 82.152 279.328 M99.627 269.297 C 100.767 269.773,100.777 269.872,100.688 279.707 C 100.589 290.541,101.112 289.731,94.218 289.731 L 89.976 289.731 89.976 279.340 L 89.976 268.949 94.384 268.949 C 97.646 268.949,99.010 269.039,99.627 269.297 M116.950 270.416 C 114.973 270.828,113.444 271.994,112.567 273.760 C 112.136 274.627,112.103 275.349,112.103 283.741 L 112.103 292.787 112.805 294.217 C 114.298 297.259,115.496 297.555,126.296 297.555 L 134.474 297.555 134.474 294.132 L 134.474 290.709 127.145 290.709 L 119.816 290.709 119.426 290.114 C 118.378 288.516,118.453 288.467,126.773 285.316 L 134.352 282.445 134.352 278.447 C 134.352 273.390,133.726 271.980,130.929 270.742 C 129.827 270.254,118.946 270.000,116.950 270.416 M135.941 270.412 C 135.941 271.081,145.138 295.590,145.645 296.272 C 147.217 298.387,150.679 298.549,152.813 296.609 C 153.745 295.762,153.994 295.160,158.294 283.374 C 160.772 276.583,162.875 270.831,162.969 270.592 C 163.127 270.186,162.908 270.162,159.625 270.225 L 156.112 270.293 152.770 279.462 C 149.894 287.353,149.396 288.546,149.195 288.020 C 149.066 287.683,147.779 284.108,146.333 280.073 C 144.887 276.039,143.490 272.161,143.228 271.455 L 142.752 270.171 139.347 270.171 C 137.275 270.171,135.941 270.265,135.941 270.412 M127.065 278.097 C 127.925 278.837,128.219 278.648,123.449 280.409 C 118.528 282.226,118.826 282.212,118.830 280.623 C 118.837 277.973,119.527 277.515,123.519 277.510 C 126.193 277.506,126.423 277.545,127.065 278.097 " stroke="none" fill="#db7500" fill-rule="evenodd"></path><path id="path1" d="M0.000 187.286 L 0.000 374.572 200.000 374.572 L 400.000 374.572 400.000 187.286 L 400.000 0.000 200.000 0.000 L 0.000 0.000 0.000 187.286 M166.626 64.639 C 208.125 70.491,236.082 107.425,229.840 148.153 C 225.347 177.465,202.411 201.656,172.994 208.108 C 166.173 209.604,165.924 209.619,146.149 209.717 L 127.873 209.808 127.873 223.332 C 127.873 238.210,127.796 239.235,126.396 243.104 C 124.223 249.111,118.992 254.420,112.871 256.833 C 109.284 258.247,109.055 258.266,94.682 258.370 L 81.418 258.466 81.418 234.183 L 81.418 209.901 104.584 186.745 L 127.751 163.589 144.377 163.499 C 163.965 163.394,164.446 163.331,170.371 160.136 C 190.641 149.204,188.148 119.356,166.349 111.967 C 161.914 110.464,163.523 110.516,120.584 110.514 L 81.389 110.513 81.482 94.804 C 81.586 77.396,81.560 77.707,83.246 74.202 C 85.810 68.871,90.954 65.085,96.692 64.306 C 99.829 63.881,163.392 64.184,166.626 64.639 M233.130 200.575 C 236.477 202.138,237.951 206.061,236.361 209.178 C 233.203 215.369,224.013 213.000,224.506 206.122 C 224.838 201.500,229.158 198.722,233.130 200.575 M159.951 217.317 C 164.236 219.031,165.519 222.114,165.524 230.705 L 165.526 234.392 154.279 238.649 L 143.032 242.907 143.032 244.015 C 143.032 244.625,143.203 245.368,143.412 245.667 L 143.793 246.210 154.537 246.210 L 165.281 246.210 165.281 251.355 L 165.281 256.500 152.628 256.422 C 141.403 256.353,139.834 256.297,138.716 255.921 C 135.893 254.970,133.941 252.978,133.066 250.153 C 132.317 247.732,132.429 224.118,133.199 222.213 C 134.271 219.561,136.853 217.494,139.853 216.886 C 142.426 216.365,158.429 216.708,159.951 217.317 M187.474 221.800 L 187.540 226.851 184.850 226.934 C 182.183 227.016,182.153 227.024,181.361 227.816 L 180.562 228.616 180.495 242.547 L 180.428 256.479 175.422 256.479 L 170.416 256.479 170.419 240.770 C 170.423 223.771,170.469 223.086,171.758 220.888 C 173.684 217.600,176.307 216.636,183.130 216.705 L 187.408 216.748 187.474 221.800 M220.482 221.813 L 220.548 226.878 211.271 226.948 L 201.995 227.017 201.391 227.584 C 200.612 228.317,200.370 229.488,200.847 230.217 C 201.342 230.971,202.827 231.234,208.313 231.536 C 218.919 232.120,220.921 234.194,220.310 243.965 C 219.818 251.831,218.887 254.013,215.315 255.664 L 213.814 256.357 202.012 256.427 L 190.210 256.497 190.276 251.415 L 190.342 246.333 199.686 246.210 C 210.150 246.073,209.702 246.157,209.954 244.282 C 210.216 242.328,209.351 242.001,202.777 241.572 C 192.367 240.891,190.691 239.379,190.511 230.503 C 190.343 222.203,191.363 219.578,195.491 217.688 C 197.584 216.730,198.381 216.675,209.658 216.713 L 220.416 216.748 220.482 221.813 M235.882 236.614 L 235.944 256.479 230.808 256.479 L 225.672 256.479 225.672 236.548 L 225.672 216.616 230.746 216.682 L 235.819 216.748 235.882 236.614 M267.585 217.326 C 268.960 217.788,269.535 218.154,270.643 219.277 C 273.053 221.720,272.983 221.208,272.983 236.430 L 272.983 249.511 272.416 250.916 C 271.673 252.756,269.854 254.723,268.053 255.635 L 266.626 256.357 257.516 256.432 C 245.026 256.534,242.661 255.783,240.769 251.111 C 239.904 248.974,239.932 237.525,240.808 235.342 C 242.674 230.693,246.252 229.424,256.815 229.663 L 263.141 229.806 263.023 228.577 C 262.814 226.406,263.546 226.538,251.214 226.457 L 240.342 226.387 240.342 221.494 L 240.342 216.602 253.117 216.680 C 265.731 216.758,265.914 216.766,267.585 217.326 M304.768 217.213 C 307.298 218.148,308.733 219.586,309.695 222.147 C 310.115 223.266,310.152 224.505,310.216 239.914 L 310.285 256.479 305.143 256.479 L 300.000 256.479 300.000 242.475 C 300.000 226.899,300.079 227.633,298.342 227.150 C 296.925 226.757,290.131 226.824,289.132 227.241 C 287.744 227.821,287.775 227.468,287.775 242.527 L 287.775 256.479 282.641 256.479 L 277.506 256.479 277.506 240.754 C 277.506 215.948,277.045 216.600,294.499 216.706 C 302.610 216.755,303.672 216.807,304.768 217.213 M144.857 227.550 C 143.344 227.851,142.915 228.636,142.825 231.272 C 142.779 232.630,142.791 233.741,142.851 233.741 C 142.911 233.741,145.639 232.751,148.913 231.540 C 152.187 230.330,154.907 229.340,154.956 229.340 C 155.435 229.340,154.720 228.155,154.034 227.812 C 153.221 227.406,146.540 227.215,144.857 227.550 M251.345 239.525 C 250.099 240.001,249.850 244.776,251.014 245.855 C 251.935 246.709,261.510 246.803,262.347 245.966 C 263.097 245.216,263.078 240.637,262.322 239.952 C 261.808 239.486,252.405 239.120,251.345 239.525 M197.311 278.973 L 197.311 297.800 193.765 297.800 L 190.220 297.800 190.220 279.136 C 190.220 268.871,190.293 260.399,190.383 260.310 C 190.473 260.220,192.068 260.147,193.928 260.147 L 197.311 260.147 197.311 278.973 M103.898 261.510 C 105.634 262.025,107.334 263.708,107.972 265.540 C 108.403 266.778,108.435 267.734,108.435 279.340 C 108.435 298.421,109.048 297.776,90.892 297.792 L 82.152 297.800 82.152 279.462 L 82.152 261.125 92.376 261.125 C 100.970 261.125,102.808 261.186,103.898 261.510 M89.976 279.191 L 89.976 289.487 94.632 289.487 C 99.250 289.487,99.294 289.482,99.889 288.886 L 100.489 288.286 100.489 279.112 L 100.489 269.938 99.827 269.504 C 99.267 269.137,98.460 269.057,94.571 268.983 L 89.976 268.896 89.976 279.191 M130.576 270.543 C 133.680 271.638,134.591 273.484,134.594 278.687 L 134.597 282.436 126.919 285.346 C 118.111 288.685,118.922 288.256,119.212 289.427 L 119.438 290.342 126.956 290.407 L 134.474 290.472 134.474 294.013 L 134.474 297.555 125.961 297.555 C 111.736 297.555,111.909 297.734,112.030 283.210 C 112.137 270.312,112.218 270.219,123.380 270.188 C 128.284 270.175,129.735 270.246,130.576 270.543 M146.082 279.140 C 147.834 284.005,149.323 288.041,149.392 288.108 C 149.462 288.176,150.993 284.167,152.795 279.201 L 156.071 270.171 159.576 270.171 C 161.503 270.171,163.078 270.254,163.076 270.355 C 163.039 271.660,153.741 295.850,152.989 296.595 C 151.152 298.417,147.974 298.534,146.117 296.849 C 145.176 295.995,145.163 295.962,140.260 282.641 C 137.910 276.253,135.908 270.831,135.813 270.592 C 135.651 270.186,135.874 270.162,139.269 270.226 L 142.898 270.293 146.082 279.140 M182.854 270.796 C 185.871 271.692,186.798 273.640,186.794 279.078 L 186.792 282.763 179.319 285.575 C 170.416 288.924,171.243 288.491,171.530 289.653 L 171.760 290.587 179.279 290.651 L 186.797 290.716 186.797 294.258 L 186.797 297.800 178.284 297.800 C 164.092 297.800,164.300 298.006,164.309 283.915 C 164.315 272.852,164.626 271.964,168.949 270.644 C 170.199 270.263,181.472 270.385,182.854 270.796 M219.333 270.938 C 222.801 272.505,222.971 273.113,222.978 283.957 C 222.986 297.922,223.018 297.885,211.080 297.753 C 203.665 297.670,203.514 297.644,201.872 296.121 C 200.138 294.513,200.130 294.463,200.047 284.769 C 199.946 272.982,200.210 272.152,204.523 270.749 C 206.057 270.250,218.152 270.404,219.333 270.938 M244.271 270.807 C 245.920 271.294,247.436 272.776,248.011 274.463 C 248.592 276.169,248.610 292.693,248.032 294.075 C 246.815 296.990,243.411 298.155,236.553 298.005 L 232.762 297.922 232.763 302.995 L 232.763 308.068 229.209 308.068 L 225.656 308.068 225.725 291.748 L 225.795 275.428 226.429 274.083 C 227.204 272.439,228.356 271.280,229.684 270.809 C 231.210 270.268,242.438 270.267,244.271 270.807 M271.149 270.994 C 273.932 272.476,274.450 273.689,274.450 278.725 L 274.450 282.756 268.460 285.025 C 265.165 286.273,261.727 287.577,260.819 287.923 C 259.340 288.486,259.169 288.620,259.169 289.217 C 259.169 290.719,259.070 290.700,267.115 290.769 L 274.450 290.831 274.518 294.315 L 274.586 297.800 265.908 297.800 C 251.842 297.800,251.956 297.911,251.956 284.108 C 251.956 273.274,252.364 271.999,256.212 270.788 C 258.049 270.210,269.987 270.375,271.149 270.994 M289.731 273.961 L 289.731 277.506 288.053 277.506 C 286.725 277.506,286.239 277.612,285.730 278.013 L 285.086 278.520 285.086 288.160 L 285.086 297.800 281.531 297.800 L 277.977 297.800 278.047 286.362 L 278.117 274.925 278.730 273.735 C 280.037 271.196,281.799 270.458,286.614 270.432 L 289.731 270.416 289.731 273.961 M312.469 273.961 L 312.469 277.506 306.224 277.506 L 299.978 277.506 299.378 278.106 C 297.760 279.724,298.653 280.224,303.835 280.603 C 311.378 281.154,312.699 282.411,312.391 288.742 C 312.132 294.048,311.581 295.619,309.491 297.003 L 308.472 297.677 300.080 297.750 L 291.687 297.823 291.687 294.266 L 291.687 290.709 298.117 290.709 C 305.104 290.709,305.134 290.703,305.134 289.345 C 305.134 288.146,304.739 288.002,300.435 287.641 C 292.671 286.989,291.928 286.251,291.937 279.202 C 291.943 274.200,292.172 273.407,294.074 271.784 C 295.484 270.582,296.668 270.432,304.829 270.424 L 312.469 270.416 312.469 273.961 M207.678 278.020 C 207.020 278.747,206.829 288.760,207.450 289.962 L 207.837 290.709 211.460 290.709 C 216.334 290.709,215.993 291.156,216.090 284.646 C 216.202 277.225,216.381 277.506,211.529 277.506 C 208.400 277.506,208.109 277.545,207.678 278.020 M233.478 278.221 L 232.763 278.935 232.763 284.105 C 232.763 291.065,232.517 290.700,237.207 290.705 C 241.820 290.710,241.565 291.097,241.565 284.108 C 241.565 277.147,241.793 277.506,237.372 277.506 L 234.192 277.506 233.478 278.221 M119.560 278.240 C 118.874 278.926,118.820 282.059,119.499 281.790 C 119.734 281.696,121.605 281.007,123.655 280.258 C 127.277 278.936,127.706 278.659,127.090 278.044 C 126.532 277.485,120.148 277.651,119.560 278.240 M171.883 278.484 C 171.381 278.986,171.122 282.300,171.599 282.111 C 171.712 282.066,173.582 281.374,175.755 280.574 C 181.088 278.609,181.043 277.995,175.566 277.995 C 172.698 277.995,172.322 278.045,171.883 278.484 M259.672 278.423 C 259.210 278.797,259.153 279.056,259.217 280.475 L 259.291 282.099 263.325 280.621 C 268.042 278.893,267.673 279.100,267.116 278.486 C 266.487 277.790,260.516 277.740,259.672 278.423 M84.367 302.262 C 84.770 304.613,84.989 304.769,85.194 302.853 C 85.564 299.403,88.012 299.810,88.018 303.321 C 88.021 304.788,88.372 304.398,88.744 302.517 C 89.077 300.829,89.186 300.602,89.698 300.529 C 90.661 300.393,90.699 300.731,90.084 304.034 C 89.758 305.782,89.491 307.238,89.489 307.268 C 89.488 307.299,89.211 307.504,88.875 307.724 C 87.839 308.403,87.109 307.718,86.900 305.870 C 86.690 304.016,86.419 303.991,86.232 305.807 C 86.096 307.124,85.515 308.068,84.841 308.068 C 83.984 308.068,82.020 301.677,82.569 300.672 C 83.101 299.700,84.076 300.561,84.367 302.262 M96.837 302.262 C 97.240 304.613,97.459 304.769,97.664 302.853 C 98.033 299.403,100.481 299.810,100.488 303.321 C 100.490 304.788,100.842 304.398,101.213 302.517 C 101.546 300.829,101.655 300.602,102.168 300.529 C 103.131 300.393,103.168 300.731,102.553 304.034 C 102.227 305.782,101.960 307.238,101.959 307.268 C 101.957 307.299,101.681 307.504,101.345 307.724 C 100.309 308.403,99.579 307.718,99.370 305.870 C 99.160 304.016,98.888 303.991,98.701 305.807 C 98.565 307.124,97.985 308.068,97.311 308.068 C 96.453 308.068,94.490 301.677,95.039 300.672 C 95.570 299.700,96.545 300.561,96.837 302.262 M109.306 302.262 C 109.709 304.613,109.928 304.769,110.133 302.853 C 110.503 299.403,112.951 299.810,112.957 303.321 C 112.960 304.788,113.311 304.398,113.682 302.517 C 114.016 300.829,114.125 300.602,114.637 300.529 C 115.600 300.393,115.637 300.731,115.022 304.034 C 114.697 305.782,114.429 307.238,114.428 307.268 C 114.427 307.299,114.150 307.504,113.814 307.724 C 112.778 308.403,112.048 307.718,111.839 305.870 C 111.629 304.016,111.358 303.991,111.171 305.807 C 111.035 307.124,110.454 308.068,109.780 308.068 C 108.923 308.068,106.959 301.677,107.508 300.672 C 108.040 299.700,109.014 300.561,109.306 302.262 M131.193 301.086 C 131.639 301.695,131.650 304.158,131.210 304.759 C 130.979 305.075,130.465 305.245,129.499 305.325 L 128.117 305.440 128.117 306.632 L 128.117 307.824 127.262 307.824 L 126.406 307.824 126.406 304.132 L 126.406 300.440 128.626 300.526 C 130.482 300.597,130.904 300.689,131.193 301.086 M140.342 301.345 L 140.342 302.200 138.875 302.200 C 137.474 302.200,137.408 302.228,137.408 302.812 C 137.408 303.396,137.474 303.423,138.875 303.423 L 140.342 303.423 140.342 304.279 L 140.342 305.134 138.875 305.134 C 137.571 305.134,137.408 305.189,137.408 305.623 C 137.408 306.058,137.571 306.112,138.875 306.112 L 140.342 306.112 140.342 306.968 L 140.342 307.824 138.467 307.824 C 135.783 307.824,135.697 307.714,135.697 304.288 C 135.697 300.682,135.808 300.542,138.692 300.508 L 140.342 300.489 140.342 301.345 M149.278 301.089 C 150.205 302.017,150.131 303.724,149.121 304.667 L 148.365 305.373 149.128 306.613 L 149.891 307.853 148.846 307.777 C 147.868 307.707,147.750 307.617,147.006 306.368 L 146.210 305.034 146.210 306.429 L 146.210 307.824 145.355 307.824 L 144.499 307.824 144.499 304.319 C 144.499 302.392,144.572 300.742,144.662 300.652 C 145.154 300.160,148.683 300.494,149.278 301.089 M158.680 301.345 L 158.680 302.200 157.196 302.200 C 155.168 302.200,155.046 303.206,157.046 303.436 C 158.462 303.599,158.671 303.877,158.676 305.604 C 158.681 307.542,158.336 307.824,155.952 307.824 L 154.034 307.824 154.034 306.968 L 154.034 306.112 155.501 306.112 C 157.509 306.112,157.698 305.294,155.750 305.036 C 154.306 304.844,154.034 304.475,154.034 302.706 C 154.034 300.869,154.516 300.489,156.846 300.489 L 158.680 300.489 158.680 301.345 M164.548 304.156 L 164.548 307.824 163.692 307.824 L 162.836 307.824 162.836 304.319 C 162.836 300.507,162.841 300.489,163.855 300.489 L 164.548 300.489 164.548 304.156 M172.674 300.917 C 172.881 301.152,173.454 302.642,173.946 304.228 C 174.437 305.814,174.901 307.272,174.977 307.468 C 175.081 307.740,174.902 307.824,174.219 307.824 C 173.445 307.824,173.290 307.725,173.068 307.090 C 172.838 306.428,172.710 306.357,171.756 306.357 C 170.780 306.357,170.687 306.413,170.538 307.090 C 170.397 307.731,170.271 307.824,169.540 307.824 C 168.521 307.824,168.507 308.158,169.688 304.309 C 170.834 300.573,171.601 299.702,172.674 300.917 M181.076 300.676 C 181.504 300.962,181.826 301.725,182.185 303.301 L 182.518 304.768 182.641 302.689 L 182.763 300.611 183.496 300.611 L 184.230 300.611 184.301 303.423 C 184.433 308.665,182.553 310.004,181.253 305.594 L 180.721 303.790 180.703 305.807 L 180.685 307.824 179.829 307.824 L 178.973 307.824 178.973 304.645 C 178.973 300.940,179.626 299.708,181.076 300.676 M193.541 301.086 C 193.789 301.426,193.888 302.307,193.888 304.203 C 193.888 307.697,193.776 307.824,190.709 307.824 L 188.509 307.824 188.509 304.319 C 188.509 302.392,188.591 300.732,188.692 300.631 C 189.113 300.207,193.177 300.589,193.541 301.086 M202.689 301.345 L 202.689 302.200 201.222 302.200 C 199.821 302.200,199.756 302.228,199.756 302.812 C 199.756 303.396,199.821 303.423,201.222 303.423 L 202.689 303.423 202.689 304.279 L 202.689 305.134 201.222 305.134 C 199.919 305.134,199.756 305.189,199.756 305.623 C 199.756 306.058,199.919 306.112,201.222 306.112 L 202.689 306.112 202.689 306.968 L 202.689 307.824 200.814 307.824 C 198.130 307.824,198.044 307.714,198.044 304.288 C 198.044 300.682,198.155 300.542,201.039 300.508 L 202.689 300.489 202.689 301.345 M208.754 300.917 C 208.872 301.152,209.230 302.280,209.549 303.423 L 210.128 305.501 210.884 303.056 C 211.622 300.669,211.658 300.609,212.421 300.535 C 213.408 300.438,213.411 300.383,212.217 304.182 C 211.138 307.613,210.610 308.355,209.684 307.740 C 209.245 307.448,207.090 301.685,207.090 300.802 C 207.090 300.316,208.502 300.413,208.754 300.917 M222.005 301.345 L 222.005 302.200 220.538 302.200 C 219.136 302.200,219.071 302.228,219.071 302.812 C 219.071 303.396,219.136 303.423,220.538 303.423 L 222.005 303.423 222.005 304.279 L 222.005 305.134 220.538 305.134 C 219.234 305.134,219.071 305.189,219.071 305.623 C 219.071 306.058,219.234 306.112,220.538 306.112 L 222.005 306.112 222.005 306.968 L 222.005 307.824 220.129 307.824 C 217.445 307.824,217.359 307.714,217.359 304.288 C 217.359 300.682,217.470 300.542,220.355 300.508 L 222.005 300.489 222.005 301.345 M239.950 300.957 C 240.533 301.441,240.523 306.730,239.938 307.377 C 239.423 307.945,236.541 308.015,235.805 307.477 C 234.946 306.850,234.953 301.944,235.814 301.083 C 236.540 300.357,239.132 300.278,239.950 300.957 M249.286 301.086 C 249.731 301.695,249.743 304.158,249.303 304.759 C 249.072 305.075,248.558 305.245,247.592 305.325 L 246.210 305.440 246.210 306.632 L 246.210 307.824 245.355 307.824 L 244.499 307.824 244.499 304.132 L 244.499 300.440 246.719 300.526 C 248.574 300.597,248.996 300.689,249.286 301.086 M258.435 301.345 L 258.435 302.200 256.968 302.200 C 255.566 302.200,255.501 302.228,255.501 302.812 C 255.501 303.396,255.566 303.423,256.968 303.423 L 258.435 303.423 258.435 304.279 L 258.435 305.134 256.968 305.134 C 255.664 305.134,255.501 305.189,255.501 305.623 C 255.501 306.058,255.664 306.112,256.968 306.112 L 258.435 306.112 258.435 306.968 L 258.435 307.824 256.560 307.824 C 253.876 307.824,253.790 307.714,253.790 304.288 C 253.790 300.682,253.901 300.542,256.785 300.508 L 258.435 300.489 258.435 301.345 M267.371 301.089 C 268.298 302.017,268.224 303.724,267.214 304.667 L 266.458 305.373 267.221 306.613 L 267.984 307.853 266.939 307.777 C 265.961 307.707,265.843 307.617,265.099 306.368 L 264.303 305.034 264.303 306.429 L 264.303 307.824 263.447 307.824 L 262.592 307.824 262.592 304.319 C 262.592 302.392,262.665 300.742,262.755 300.652 C 263.246 300.160,266.776 300.494,267.371 301.089 M276.773 301.345 L 276.773 302.200 275.289 302.200 C 273.261 302.200,273.139 303.206,275.139 303.436 C 276.554 303.599,276.764 303.877,276.769 305.604 C 276.774 307.542,276.429 307.824,274.045 307.824 L 272.127 307.824 272.127 306.968 L 272.127 306.112 273.594 306.112 C 275.602 306.112,275.791 305.294,273.843 305.036 C 272.399 304.844,272.127 304.475,272.127 302.706 C 272.127 300.869,272.609 300.489,274.939 300.489 L 276.773 300.489 276.773 301.345 M292.421 301.345 L 292.421 302.200 290.954 302.200 L 289.487 302.200 289.487 304.156 L 289.487 306.112 290.954 306.112 L 292.421 306.112 292.421 306.968 L 292.421 307.824 290.545 307.824 C 287.842 307.824,287.775 307.735,287.775 304.132 C 287.775 300.613,287.873 300.489,290.641 300.489 L 292.421 300.489 292.421 301.345 M301.319 300.957 C 301.902 301.441,301.892 306.730,301.307 307.377 C 300.793 307.945,297.910 308.015,297.174 307.477 C 296.315 306.850,296.322 301.944,297.183 301.083 C 297.909 300.357,300.501 300.278,301.319 300.957 M308.312 300.854 C 308.478 301.055,308.806 302.073,309.039 303.116 L 309.464 305.012 309.744 303.973 C 309.898 303.402,310.138 302.496,310.277 301.960 C 310.660 300.486,312.078 299.969,312.822 301.032 C 313.119 301.455,313.203 302.268,313.203 304.700 L 313.203 307.824 312.347 307.824 L 311.491 307.824 311.468 305.807 L 311.444 303.790 310.946 305.705 C 310.114 308.909,309.023 308.925,308.110 305.746 L 307.618 304.034 307.599 305.929 L 307.579 307.824 306.724 307.824 L 305.868 307.824 305.868 304.700 C 305.868 302.268,305.952 301.455,306.249 301.032 C 306.693 300.398,307.850 300.298,308.312 300.854 M128.117 302.949 C 128.117 304.025,129.660 303.954,129.784 302.873 C 129.856 302.251,129.796 302.200,128.989 302.200 C 128.179 302.200,128.117 302.254,128.117 302.949 M146.210 303.003 C 146.210 303.828,146.218 303.834,147.127 303.686 C 147.900 303.560,148.044 303.442,148.044 302.930 C 148.044 302.405,147.920 302.312,147.127 302.247 C 146.232 302.173,146.210 302.191,146.210 303.003 M190.220 304.156 L 190.220 306.112 191.198 306.112 L 192.176 306.112 192.176 304.156 L 192.176 302.200 191.198 302.200 L 190.220 302.200 190.220 304.156 M237.082 302.363 C 236.993 302.453,236.919 303.333,236.919 304.319 L 236.919 306.112 237.775 306.112 L 238.631 306.112 238.631 304.156 L 238.631 302.200 237.938 302.200 C 237.557 302.200,237.172 302.274,237.082 302.363 M246.210 302.949 C 246.210 304.025,247.753 303.954,247.877 302.873 C 247.948 302.251,247.889 302.200,247.082 302.200 C 246.272 302.200,246.210 302.254,246.210 302.949 M264.303 303.003 C 264.303 303.828,264.311 303.834,265.220 303.686 C 265.993 303.560,266.137 303.442,266.137 302.930 C 266.137 302.405,266.013 302.312,265.220 302.247 C 264.325 302.173,264.303 302.191,264.303 303.003 M298.452 302.363 C 298.362 302.453,298.289 303.333,298.289 304.319 L 298.289 306.112 299.144 306.112 L 300.000 306.112 300.000 304.156 L 300.000 302.200 299.307 302.200 C 298.926 302.200,298.541 302.274,298.452 302.363 M171.556 303.652 C 171.372 304.571,171.437 304.727,171.950 304.606 C 172.240 304.537,172.250 304.378,172.010 303.674 L 171.721 302.825 171.556 303.652 M121.959 306.768 C 122.065 307.516,121.204 307.967,120.677 307.439 C 120.214 306.976,120.200 306.793,120.596 306.396 C 121.058 305.935,121.872 306.157,121.959 306.768 M283.328 306.768 C 283.434 307.516,282.574 307.967,282.046 307.439 C 281.583 306.976,281.569 306.793,281.965 306.396 C 282.427 305.935,283.241 306.157,283.328 306.768 " stroke="none" fill="#04143c" fill-rule="evenodd"></path><path id="path2" d="M229.385 200.262 C 224.548 201.211,222.921 207.725,226.677 211.102 C 229.824 213.931,234.602 212.802,236.411 208.802 C 238.401 204.402,234.215 199.314,229.385 200.262 M138.835 217.333 C 135.915 218.281,134.039 220.091,133.236 222.735 C 132.763 224.292,132.745 224.905,132.813 236.937 L 132.885 249.511 133.473 250.970 C 135.454 255.890,137.605 256.467,153.973 256.474 L 165.281 256.479 165.281 251.467 L 165.281 246.455 154.707 246.447 C 146.418 246.441,144.042 246.371,143.714 246.121 C 143.175 245.712,142.787 244.682,142.787 243.663 L 142.787 242.858 154.034 238.605 L 165.281 234.352 165.281 229.575 C 165.281 222.031,164.226 219.453,160.391 217.631 L 159.046 216.993 149.633 216.938 C 141.069 216.888,140.095 216.924,138.835 217.333 M176.781 217.262 C 173.887 218.039,172.019 219.874,171.077 222.861 C 170.544 224.552,170.538 224.757,170.538 240.465 L 170.538 256.357 175.489 256.423 L 180.440 256.489 180.440 242.523 L 180.440 228.557 181.241 227.757 C 182.174 226.824,183.707 226.504,185.921 226.781 L 187.286 226.951 187.286 221.911 L 187.286 216.870 182.702 216.887 C 179.484 216.898,177.719 217.010,176.781 217.262 M197.066 217.220 C 191.959 218.641,190.831 220.855,190.831 229.462 L 190.831 235.575 191.530 236.998 C 193.053 240.100,195.622 241.051,203.799 241.538 C 209.212 241.861,210.499 242.425,210.140 244.319 C 209.736 246.446,209.693 246.455,199.405 246.455 L 190.465 246.455 190.465 251.482 L 190.465 256.510 201.895 256.429 C 218.960 256.309,219.724 255.750,220.204 243.032 C 220.549 233.863,218.538 232.080,207.272 231.561 C 204.684 231.442,202.282 231.233,201.933 231.096 C 200.307 230.460,199.969 228.844,201.204 227.610 L 201.918 226.895 211.091 226.895 C 216.137 226.895,220.303 226.812,220.351 226.711 C 220.398 226.611,220.394 224.355,220.342 221.699 L 220.248 216.870 209.207 216.892 C 201.172 216.908,197.867 216.997,197.066 217.220 M225.917 236.675 L 225.917 256.479 230.807 256.479 L 235.697 256.479 235.697 236.675 L 235.697 216.870 230.807 216.870 L 225.917 216.870 225.917 236.675 M240.342 221.630 L 240.342 226.406 251.176 226.406 C 263.765 226.406,263.081 226.271,263.081 228.753 L 263.081 230.103 261.951 229.934 C 259.049 229.499,249.341 229.713,247.391 230.255 C 243.933 231.217,242.271 232.457,241.105 234.942 L 240.465 236.308 240.465 243.276 C 240.465 251.319,240.523 251.584,242.773 253.775 C 245.160 256.101,247.150 256.475,257.140 256.477 C 266.741 256.480,268.033 256.198,270.499 253.562 C 273.030 250.856,273.165 249.884,273.047 235.279 C 272.936 221.564,272.751 220.609,269.820 218.593 C 267.469 216.975,267.708 217.000,253.362 216.923 L 240.342 216.854 240.342 221.630 M283.801 217.129 C 281.283 217.741,279.645 219.097,278.506 221.516 L 277.873 222.861 277.804 239.670 L 277.735 256.479 282.633 256.479 L 287.531 256.479 287.531 242.677 C 287.531 232.496,287.607 228.706,287.823 228.233 C 288.364 227.045,289.056 226.895,293.994 226.895 L 298.525 226.895 299.324 227.608 L 300.122 228.322 300.189 242.405 L 300.256 256.489 305.201 256.423 L 310.147 256.357 310.089 240.098 C 310.022 221.128,310.067 221.521,307.714 219.193 C 305.512 217.014,305.495 217.011,294.377 216.955 C 289.065 216.928,284.306 217.007,283.801 217.129 M154.302 227.804 C 156.229 228.941,156.092 229.040,148.948 231.674 L 142.910 233.899 142.839 231.462 C 142.729 227.608,143.021 227.421,149.229 227.399 C 152.931 227.386,153.700 227.447,154.302 227.804 M262.481 239.964 C 263.029 240.513,263.081 240.755,263.081 242.765 C 263.081 246.654,263.007 246.699,256.566 246.699 L 251.785 246.699 250.954 245.868 C 249.886 244.801,249.687 241.206,250.629 240.009 L 251.136 239.364 256.508 239.364 L 261.880 239.364 262.481 239.964 M190.465 279.095 L 190.465 297.800 193.888 297.800 L 197.311 297.800 197.311 279.095 L 197.311 260.391 193.888 260.391 L 190.465 260.391 190.465 279.095 M167.847 271.235 C 164.545 272.773,164.247 273.908,164.365 284.527 C 164.512 297.841,164.272 297.609,178.056 297.743 L 186.797 297.828 186.797 294.391 L 186.797 290.954 179.500 290.954 C 171.298 290.954,171.270 290.947,171.438 289.204 L 171.516 288.387 177.751 286.019 C 181.180 284.716,184.629 283.413,185.416 283.123 L 186.847 282.596 186.758 278.767 C 186.639 273.635,185.728 271.785,182.904 270.939 C 180.930 270.348,169.260 270.577,167.847 271.235 M204.399 270.889 C 200.520 272.069,200.247 272.954,200.248 284.352 L 200.249 293.276 200.846 294.557 C 202.106 297.265,203.892 297.800,211.671 297.800 C 222.686 297.800,222.983 297.438,222.983 284.018 C 222.983 270.788,222.859 270.644,211.509 270.681 C 207.936 270.693,204.736 270.786,204.399 270.889 M229.145 271.180 C 225.937 272.768,225.917 272.900,225.917 291.963 L 225.917 308.125 226.467 307.978 C 226.770 307.897,228.310 307.829,229.890 307.827 L 232.763 307.824 232.763 302.776 L 232.763 297.728 235.792 297.896 C 242.849 298.288,247.086 296.793,248.043 293.571 C 248.668 291.465,248.574 276.864,247.921 274.751 C 247.351 272.905,245.905 271.359,244.341 270.925 C 242.386 270.382,230.349 270.585,229.145 271.180 M255.819 271.057 C 252.410 272.283,252.034 273.652,252.127 284.517 L 252.200 293.032 252.857 294.433 C 254.283 297.474,255.593 297.800,266.429 297.800 L 274.644 297.800 274.486 295.929 C 274.399 294.900,274.328 293.360,274.328 292.506 L 274.328 290.954 267.132 290.954 C 259.238 290.954,259.374 290.979,259.042 289.465 C 258.819 288.450,258.305 288.710,266.960 285.443 L 274.629 282.547 274.529 278.828 C 274.406 274.259,273.862 272.814,271.776 271.524 L 270.578 270.782 263.712 270.735 C 258.116 270.697,256.656 270.756,255.819 271.057 M281.788 271.052 C 278.354 272.308,278.158 273.124,278.052 286.614 L 277.964 297.800 281.403 297.800 L 284.841 297.800 284.841 288.253 L 284.841 278.706 285.441 278.106 C 286.058 277.490,286.289 277.434,288.386 277.402 L 289.609 277.384 289.677 274.022 L 289.745 270.660 286.254 270.677 C 283.840 270.689,282.462 270.805,281.788 271.052 M295.630 271.077 C 292.833 272.065,291.932 274.051,291.932 279.225 C 291.932 286.043,292.952 287.006,300.725 287.521 C 304.377 287.763,305.224 288.058,305.329 289.125 C 305.501 290.870,305.166 290.954,298.034 290.954 L 291.687 290.954 291.687 294.377 L 291.687 297.800 299.344 297.800 C 311.368 297.800,312.134 297.218,312.251 288.002 C 312.322 282.333,310.859 281.114,303.485 280.704 C 299.308 280.471,298.778 280.293,298.778 279.125 C 298.778 277.540,298.931 277.506,306.071 277.506 L 312.469 277.506 312.469 274.083 L 312.469 270.660 304.584 270.679 C 298.132 270.695,296.505 270.767,295.630 271.077 M215.638 278.041 C 216.110 278.547,216.137 278.879,216.137 284.165 L 216.137 289.753 215.537 290.353 C 214.574 291.316,208.362 291.281,207.597 290.309 C 206.916 289.443,206.808 278.996,207.471 278.050 C 208.055 277.216,214.863 277.209,215.638 278.041 M241.118 277.911 C 241.847 278.571,241.795 289.372,241.058 290.309 C 240.350 291.209,234.509 291.314,233.407 290.447 L 232.763 289.940 232.763 284.367 C 232.763 277.062,232.474 277.506,237.223 277.506 C 240.088 277.506,240.746 277.575,241.118 277.911 M179.070 278.028 C 179.622 278.280,180.090 278.916,179.878 279.128 C 179.693 279.313,171.828 282.152,171.500 282.152 C 170.758 282.152,171.041 279.288,171.864 278.465 C 172.653 277.676,177.635 277.374,179.070 278.028 M266.952 278.141 C 267.997 278.873,267.511 279.219,263.203 280.805 L 259.046 282.336 258.972 280.970 C 258.814 278.089,259.252 277.774,263.454 277.760 C 265.762 277.753,266.515 277.835,266.952 278.141 M82.643 300.778 C 82.672 301.646,83.887 307.192,84.107 307.456 C 85.087 308.638,85.971 307.519,86.192 304.818 C 86.403 302.235,86.534 302.271,86.941 305.026 C 87.559 309.202,89.067 308.940,89.834 304.523 C 90.067 303.178,90.318 301.776,90.392 301.406 C 90.510 300.813,90.452 300.733,89.900 300.733 C 89.188 300.733,89.153 300.813,88.720 303.484 C 88.339 305.838,88.132 305.877,87.911 303.636 C 87.509 299.552,85.784 299.414,85.272 303.426 C 84.968 305.802,84.831 305.736,84.346 302.977 C 83.990 300.958,83.940 300.852,83.306 300.778 C 82.940 300.736,82.642 300.736,82.643 300.778 M95.113 300.778 C 95.141 301.646,96.357 307.192,96.576 307.456 C 97.557 308.638,98.441 307.519,98.661 304.818 C 98.873 302.235,99.004 302.271,99.411 305.026 C 100.028 309.202,101.537 308.940,102.303 304.523 C 102.536 303.178,102.787 301.776,102.861 301.406 C 102.979 300.813,102.921 300.733,102.370 300.733 C 101.657 300.733,101.623 300.813,101.190 303.484 C 100.808 305.838,100.601 305.877,100.380 303.636 C 99.978 299.552,98.253 299.414,97.741 303.426 C 97.438 305.802,97.301 305.736,96.815 302.977 C 96.460 300.958,96.410 300.852,95.776 300.778 C 95.410 300.736,95.111 300.736,95.113 300.778 M107.582 300.778 C 107.611 301.646,108.826 307.192,109.046 307.456 C 110.026 308.638,110.910 307.519,111.131 304.818 C 111.342 302.235,111.473 302.271,111.880 305.026 C 112.498 309.202,114.006 308.940,114.772 304.523 C 115.006 303.178,115.257 301.776,115.331 301.406 C 115.449 300.813,115.391 300.733,114.839 300.733 C 114.126 300.733,114.092 300.813,113.659 303.484 C 113.278 305.838,113.071 305.877,112.850 303.636 C 112.447 299.552,110.723 299.414,110.211 303.426 C 109.907 305.802,109.770 305.736,109.284 302.977 C 108.929 300.958,108.879 300.852,108.245 300.778 C 107.879 300.736,107.581 300.736,107.582 300.778 M126.406 304.156 L 126.406 307.579 127.139 307.579 C 127.857 307.579,127.873 307.552,127.873 306.357 L 127.873 305.134 129.111 305.134 C 131.082 305.134,131.296 304.919,131.296 302.934 C 131.296 300.853,131.138 300.733,128.378 300.733 L 126.406 300.733 126.406 304.156 M136.369 300.998 C 135.838 301.307,135.721 306.772,136.235 307.286 C 136.870 307.922,140.342 307.663,140.342 306.980 C 140.342 306.415,140.253 306.376,138.814 306.308 C 137.350 306.238,137.283 306.207,137.209 305.562 L 137.131 304.890 138.737 304.890 L 140.342 304.890 140.342 304.156 L 140.342 303.423 138.753 303.423 C 137.221 303.423,137.164 303.401,137.164 302.812 C 137.164 302.222,137.221 302.200,138.753 302.200 L 140.342 302.200 140.342 301.467 L 140.342 300.733 138.570 300.741 C 137.595 300.745,136.605 300.861,136.369 300.998 M144.743 304.156 L 144.743 307.579 145.477 307.579 L 146.210 307.579 146.210 304.890 L 146.210 302.200 147.188 302.200 C 148.591 302.200,148.694 303.514,147.311 303.774 C 145.712 304.073,146.946 307.579,148.650 307.579 C 149.564 307.579,149.564 307.480,148.654 306.112 C 148.012 305.147,147.975 305.002,148.350 304.926 C 149.257 304.743,149.633 304.123,149.633 302.812 C 149.633 301.003,149.258 300.733,146.741 300.733 L 144.743 300.733 144.743 304.156 M154.572 301.027 C 154.174 301.425,154.184 304.313,154.584 304.564 C 154.752 304.669,155.385 304.813,155.990 304.884 C 157.859 305.102,157.622 306.207,155.685 306.308 C 154.376 306.376,154.279 306.423,154.279 306.980 C 154.279 307.562,154.331 307.579,156.083 307.579 C 158.311 307.579,158.484 307.410,158.386 305.339 L 158.313 303.790 156.968 303.533 C 154.852 303.129,154.840 302.200,156.951 302.200 L 158.435 302.200 158.435 301.467 L 158.435 300.733 156.650 300.733 C 155.588 300.733,154.747 300.852,154.572 301.027 M163.081 304.156 L 163.081 307.579 163.692 307.579 L 164.303 307.579 164.303 304.156 L 164.303 300.733 163.692 300.733 L 163.081 300.733 163.081 304.156 M170.979 301.039 C 170.761 301.328,168.947 307.006,168.948 307.396 C 168.950 308.028,170.365 307.527,170.501 306.846 C 170.639 306.159,170.719 306.112,171.767 306.112 C 172.791 306.112,172.908 306.175,173.142 306.846 C 173.349 307.442,173.536 307.579,174.133 307.579 C 174.693 307.579,174.835 307.490,174.725 307.205 C 174.646 306.999,174.237 305.706,173.817 304.332 C 172.764 300.892,171.871 299.856,170.979 301.039 M179.522 301.016 C 179.311 301.227,179.218 302.279,179.218 304.450 L 179.218 307.579 179.829 307.579 L 180.440 307.579 180.440 305.094 C 180.440 302.221,180.543 302.182,181.210 304.808 C 181.772 307.018,182.216 307.824,182.873 307.824 C 183.926 307.824,184.108 307.246,184.108 303.895 L 184.108 300.733 183.505 300.733 C 182.908 300.733,182.902 300.758,182.833 303.240 L 182.763 305.746 182.319 304.279 C 182.075 303.472,181.745 302.372,181.586 301.834 C 181.274 300.781,180.188 300.350,179.522 301.016 M188.753 304.156 L 188.753 307.579 190.037 307.615 C 193.664 307.715,193.643 307.735,193.643 304.266 C 193.643 300.767,193.617 300.733,190.814 300.733 L 188.753 300.733 188.753 304.156 M198.716 300.998 C 198.185 301.307,198.068 306.772,198.582 307.286 C 199.218 307.922,202.689 307.663,202.689 306.980 C 202.689 306.415,202.601 306.376,201.161 306.308 C 199.697 306.238,199.630 306.207,199.556 305.562 L 199.479 304.890 201.084 304.890 L 202.689 304.890 202.689 304.156 L 202.689 303.423 201.100 303.423 C 199.568 303.423,199.511 303.401,199.511 302.812 C 199.511 302.222,199.568 302.200,201.100 302.200 L 202.689 302.200 202.689 301.467 L 202.689 300.733 200.917 300.741 C 199.942 300.745,198.952 300.861,198.716 300.998 M208.260 304.061 C 209.983 309.076,210.546 309.046,212.169 303.851 L 213.142 300.733 212.450 300.733 C 211.785 300.733,211.726 300.834,210.995 303.202 C 210.576 304.559,210.178 305.614,210.111 305.547 C 210.043 305.479,209.681 304.396,209.306 303.140 C 208.649 300.936,208.598 300.853,207.866 300.780 L 207.108 300.704 208.260 304.061 M218.032 300.998 C 217.501 301.307,217.384 306.772,217.897 307.286 C 218.533 307.922,222.005 307.663,222.005 306.980 C 222.005 306.415,221.916 306.376,220.477 306.308 C 219.012 306.238,218.945 306.207,218.871 305.562 L 218.794 304.890 220.399 304.890 L 222.005 304.890 222.005 304.156 L 222.005 303.423 220.416 303.423 C 218.883 303.423,218.826 303.401,218.826 302.812 C 218.826 302.222,218.883 302.200,220.416 302.200 L 222.005 302.200 222.005 301.467 L 222.005 300.733 220.232 300.741 C 219.257 300.745,218.267 300.861,218.032 300.998 M235.847 301.108 C 235.349 301.605,235.264 306.805,235.746 307.286 C 236.313 307.853,239.523 307.663,239.962 307.036 C 240.441 306.351,240.488 302.381,240.027 301.467 C 239.630 300.681,236.539 300.415,235.847 301.108 M244.499 304.156 L 244.499 307.579 245.232 307.579 C 245.949 307.579,245.966 307.552,245.966 306.357 L 245.966 305.134 247.204 305.134 C 249.175 305.134,249.389 304.919,249.389 302.934 C 249.389 300.853,249.231 300.733,246.471 300.733 L 244.499 300.733 244.499 304.156 M254.462 300.998 C 253.931 301.307,253.814 306.772,254.328 307.286 C 254.963 307.922,258.435 307.663,258.435 306.980 C 258.435 306.415,258.346 306.376,256.907 306.308 C 255.443 306.238,255.376 306.207,255.302 305.562 L 255.224 304.890 256.830 304.890 L 258.435 304.890 258.435 304.156 L 258.435 303.423 256.846 303.423 C 255.314 303.423,255.257 303.401,255.257 302.812 C 255.257 302.222,255.314 302.200,256.846 302.200 L 258.435 302.200 258.435 301.467 L 258.435 300.733 256.663 300.741 C 255.688 300.745,254.697 300.861,254.462 300.998 M262.836 304.156 L 262.836 307.579 263.570 307.579 L 264.303 307.579 264.303 304.890 L 264.303 302.200 265.281 302.200 C 266.684 302.200,266.786 303.514,265.403 303.774 C 263.805 304.073,265.039 307.579,266.743 307.579 C 267.657 307.579,267.657 307.480,266.747 306.112 C 266.105 305.147,266.067 305.002,266.443 304.926 C 267.350 304.743,267.726 304.123,267.726 302.812 C 267.726 301.003,267.351 300.733,264.834 300.733 L 262.836 300.733 262.836 304.156 M272.665 301.027 C 272.267 301.425,272.277 304.313,272.677 304.564 C 272.845 304.669,273.478 304.813,274.083 304.884 C 275.952 305.102,275.715 306.207,273.778 306.308 C 272.469 306.376,272.372 306.423,272.372 306.980 C 272.372 307.562,272.424 307.579,274.175 307.579 C 276.403 307.579,276.577 307.410,276.479 305.339 L 276.406 303.790 275.061 303.533 C 272.945 303.129,272.933 302.200,275.044 302.200 L 276.528 302.200 276.528 301.467 L 276.528 300.733 274.743 300.733 C 273.681 300.733,272.840 300.852,272.665 301.027 M288.233 301.138 C 287.995 301.425,287.897 302.300,287.897 304.156 C 287.897 307.509,287.951 307.579,290.494 307.579 C 292.376 307.579,292.421 307.566,292.421 306.980 C 292.421 306.415,292.332 306.376,290.892 306.308 L 289.364 306.235 289.293 304.230 L 289.223 302.226 290.090 302.064 C 290.567 301.974,291.286 301.949,291.689 302.008 C 292.354 302.106,292.421 302.053,292.421 301.425 L 292.421 300.733 290.494 300.733 C 289.001 300.733,288.493 300.824,288.233 301.138 M297.216 301.108 C 296.718 301.605,296.633 306.805,297.115 307.286 C 297.682 307.853,300.892 307.663,301.331 307.036 C 301.811 306.351,301.857 302.381,301.396 301.467 C 300.999 300.681,297.908 300.415,297.216 301.108 M306.406 301.027 C 306.208 301.225,306.112 302.342,306.112 304.450 L 306.112 307.579 306.715 307.579 C 307.309 307.579,307.318 307.547,307.387 305.196 L 307.457 302.812 307.771 303.912 C 308.783 307.455,308.898 307.702,309.535 307.702 C 310.186 307.702,310.098 307.887,311.175 304.279 L 311.614 302.812 311.684 305.196 C 311.753 307.547,311.762 307.579,312.356 307.579 L 312.958 307.579 312.958 304.450 C 312.958 301.076,312.844 300.733,311.717 300.733 C 310.843 300.733,310.656 301.024,310.147 303.178 C 309.512 305.871,309.412 305.898,308.939 303.508 C 308.401 300.788,307.513 299.919,306.406 301.027 M129.951 302.934 C 129.951 303.478,129.837 303.553,128.912 303.620 C 127.896 303.694,127.873 303.679,127.873 302.934 C 127.873 302.189,127.896 302.174,128.912 302.248 C 129.837 302.315,129.951 302.390,129.951 302.934 M192.373 303.780 C 192.493 306.110,192.351 306.398,191.129 306.310 L 190.098 306.235 190.027 304.204 L 189.955 302.173 191.127 302.248 L 192.298 302.323 192.373 303.780 M238.824 304.218 L 238.753 306.235 237.867 306.309 C 236.770 306.400,236.697 306.230,236.859 303.967 L 236.985 302.200 237.940 302.200 L 238.895 302.200 238.824 304.218 M248.044 302.934 C 248.044 303.478,247.930 303.553,247.005 303.620 C 245.989 303.694,245.966 303.679,245.966 302.934 C 245.966 302.189,245.989 302.174,247.005 302.248 C 247.930 302.315,248.044 302.390,248.044 302.934 M300.193 304.218 L 300.122 306.235 299.236 306.309 C 298.139 306.400,298.066 306.230,298.228 303.967 L 298.354 302.200 299.309 302.200 L 300.264 302.200 300.193 304.218 M172.353 304.462 C 172.366 304.760,172.187 304.890,171.760 304.890 C 171.051 304.890,171.065 304.952,171.436 303.479 L 171.723 302.340 172.029 303.187 C 172.197 303.653,172.343 304.227,172.353 304.462 M120.620 306.740 C 120.539 306.951,120.590 307.241,120.733 307.384 C 121.114 307.764,121.760 307.430,121.760 306.854 C 121.760 306.251,120.843 306.159,120.620 306.740 M281.989 306.740 C 281.908 306.951,281.959 307.241,282.103 307.384 C 282.483 307.764,283.130 307.430,283.130 306.854 C 283.130 306.251,282.212 306.159,281.989 306.740 " stroke="none" fill="#f9f9f9" fill-rule="evenodd"></path><path id="path3" d="M113.386 64.242 C 121.892 64.278,135.810 64.278,144.315 64.242 C 152.821 64.206,145.862 64.177,128.851 64.177 C 111.840 64.177,104.881 64.206,113.386 64.242 M81.533 95.721 C 81.533 103.924,81.564 107.245,81.601 103.100 C 81.639 98.955,81.639 92.244,81.601 88.185 C 81.564 84.127,81.533 87.518,81.533 95.721 M207.569 83.924 C 208.169 84.563,208.691 85.086,208.731 85.086 C 208.914 85.086,208.720 84.866,207.641 83.853 L 206.479 82.763 207.569 83.924 M210.748 87.103 C 211.347 87.741,211.870 88.264,211.909 88.264 C 212.093 88.264,211.899 88.045,210.819 87.031 L 209.658 85.941 210.748 87.103 M230.636 136.919 C 230.636 137.659,230.681 137.961,230.737 137.592 C 230.793 137.222,230.793 136.617,230.737 136.247 C 230.681 135.877,230.636 136.180,230.636 136.919 M209.398 188.081 L 208.680 188.875 209.474 188.157 C 209.911 187.762,210.269 187.405,210.269 187.363 C 210.269 187.174,210.067 187.340,209.398 188.081 M81.536 234.108 C 81.536 247.555,81.565 253.092,81.601 246.412 C 81.638 239.732,81.638 228.730,81.601 221.962 C 81.565 215.195,81.536 220.660,81.536 234.108 M187.390 221.883 C 187.390 224.707,187.425 225.828,187.469 224.375 C 187.512 222.923,187.512 220.612,187.468 219.241 C 187.425 217.870,187.389 219.059,187.390 221.883 M220.350 217.604 C 220.350 218.075,220.400 218.267,220.462 218.032 C 220.523 217.796,220.523 217.411,220.462 217.176 C 220.400 216.941,220.350 217.133,220.350 217.604 M235.809 227.384 C 235.809 233.233,235.841 235.627,235.880 232.702 C 235.919 229.777,235.919 224.991,235.880 222.066 C 235.841 219.141,235.809 221.534,235.809 227.384 M190.567 229.462 C 190.567 232.152,190.603 233.285,190.647 231.981 C 190.691 230.677,190.691 228.477,190.647 227.091 C 190.603 225.706,190.567 226.773,190.567 229.462 M165.382 230.318 C 165.382 232.671,165.418 233.634,165.463 232.457 C 165.508 231.281,165.508 229.355,165.463 228.178 C 165.418 227.002,165.382 227.965,165.382 230.318 M287.645 242.787 C 287.645 250.385,287.676 253.493,287.714 249.694 C 287.752 245.895,287.752 239.679,287.714 235.880 C 287.676 232.081,287.645 235.189,287.645 242.787 M300.114 242.910 C 300.114 250.440,300.145 253.556,300.183 249.834 C 300.221 246.112,300.221 239.951,300.183 236.142 C 300.145 232.334,300.114 235.379,300.114 242.910 M205.199 231.471 C 205.571 231.527,206.121 231.526,206.421 231.468 C 206.722 231.410,206.418 231.364,205.746 231.366 C 205.073 231.368,204.827 231.415,205.199 231.471 M220.372 240.587 C 220.372 241.461,220.416 241.818,220.470 241.381 C 220.525 240.944,220.525 240.229,220.470 239.792 C 220.416 239.355,220.372 239.713,220.372 240.587 M250.208 242.787 C 250.208 243.930,250.250 244.398,250.301 243.826 C 250.353 243.255,250.353 242.320,250.301 241.748 C 250.250 241.177,250.208 241.644,250.208 242.787 M262.922 243.032 C 262.922 244.175,262.964 244.642,263.015 244.071 C 263.067 243.499,263.067 242.564,263.015 241.993 C 262.964 241.421,262.922 241.889,262.922 243.032 M149.711 246.393 C 152.645 246.432,157.376 246.432,160.224 246.393 C 163.073 246.354,160.672 246.322,154.890 246.322 C 149.108 246.322,146.777 246.354,149.711 246.393 M194.804 246.393 C 197.259 246.433,201.274 246.433,203.729 246.393 C 206.183 246.353,204.175 246.321,199.267 246.321 C 194.358 246.321,192.350 246.353,194.804 246.393 M254.597 246.637 C 255.915 246.681,258.006 246.681,259.243 246.637 C 260.479 246.592,259.401 246.556,256.846 246.557 C 254.291 246.557,253.279 246.593,254.597 246.637 M192.115 260.328 C 193.090 260.375,194.685 260.375,195.660 260.328 C 196.635 260.282,195.837 260.244,193.888 260.244 C 191.938 260.244,191.140 260.282,192.115 260.328 M108.426 279.462 C 108.426 285.850,108.458 288.463,108.496 285.269 C 108.535 282.075,108.535 276.849,108.496 273.655 C 108.458 270.461,108.426 273.075,108.426 279.462 M100.599 278.851 C 100.599 283.557,100.632 285.448,100.672 283.053 C 100.712 280.657,100.712 276.806,100.672 274.495 C 100.632 272.184,100.599 274.144,100.599 278.851 M134.473 279.267 C 134.407 281.110,134.438 282.531,134.543 282.426 C 134.648 282.320,134.703 280.813,134.664 279.076 L 134.595 275.917 134.473 279.267 M251.942 283.863 C 251.942 287.965,251.976 289.642,252.017 287.592 C 252.058 285.541,252.058 282.185,252.017 280.134 C 251.976 278.084,251.942 279.762,251.942 283.863 M121.944 277.687 C 122.784 277.735,124.160 277.735,125.000 277.687 C 125.840 277.639,125.153 277.600,123.472 277.600 C 121.791 277.600,121.103 277.639,121.944 277.687 M174.398 277.932 C 175.176 277.980,176.386 277.980,177.087 277.931 C 177.788 277.881,177.152 277.842,175.672 277.842 C 174.193 277.843,173.620 277.883,174.398 277.932 M262.173 277.932 C 262.951 277.980,264.161 277.980,264.862 277.931 C 265.563 277.881,264.927 277.842,263.447 277.842 C 261.968 277.843,261.395 277.883,262.173 277.932 M118.902 280.562 C 118.904 281.369,118.949 281.670,119.004 281.230 C 119.058 280.791,119.057 280.131,119.001 279.763 C 118.945 279.396,118.901 279.756,118.902 280.562 M259.002 280.685 C 259.002 281.559,259.047 281.916,259.101 281.479 C 259.155 281.042,259.155 280.327,259.101 279.890 C 259.047 279.453,259.002 279.811,259.002 280.685 M284.952 288.509 C 284.952 293.686,284.985 295.804,285.024 293.215 C 285.064 290.627,285.064 286.391,285.024 283.802 C 284.985 281.213,284.952 283.331,284.952 288.509 M301.650 280.613 C 301.953 280.671,302.448 280.671,302.751 280.613 C 303.053 280.554,302.806 280.507,302.200 280.507 C 301.595 280.507,301.348 280.554,301.650 280.613 M190.327 291.320 C 190.327 294.951,190.361 296.471,190.403 294.697 C 190.444 292.923,190.445 289.952,190.403 288.095 C 190.361 286.238,190.327 287.689,190.327 291.320 M92.115 289.669 C 93.359 289.713,95.394 289.713,96.638 289.669 C 97.882 289.624,96.864 289.588,94.377 289.588 C 91.889 289.588,90.871 289.624,92.115 289.669 M123.411 290.647 C 125.461 290.688,128.817 290.688,130.868 290.647 C 132.919 290.607,131.241 290.573,127.139 290.573 C 123.038 290.573,121.360 290.607,123.411 290.647 M175.993 290.892 C 178.052 290.933,181.353 290.933,183.328 290.892 C 185.303 290.851,183.619 290.817,179.584 290.817 C 175.550 290.817,173.934 290.851,175.993 290.892 M209.841 290.890 C 210.749 290.937,212.234 290.937,213.142 290.890 C 214.050 290.843,213.307 290.805,211.491 290.805 C 209.676 290.805,208.933 290.843,209.841 290.890 M235.880 290.890 C 236.721 290.938,238.096 290.938,238.936 290.890 C 239.777 290.842,239.089 290.803,237.408 290.803 C 235.727 290.803,235.040 290.842,235.880 290.890 M263.631 290.892 C 265.614 290.933,268.860 290.933,270.844 290.892 C 272.827 290.851,271.204 290.817,267.237 290.817 C 263.270 290.817,261.647 290.851,263.631 290.892 M294.682 290.892 C 296.397 290.934,299.202 290.934,300.917 290.892 C 302.631 290.850,301.229 290.815,297.800 290.815 C 294.370 290.815,292.968 290.850,294.682 290.892 M86.614 297.738 C 89.135 297.778,93.261 297.778,95.782 297.738 C 98.304 297.698,96.241 297.666,91.198 297.666 C 86.155 297.666,84.092 297.698,86.614 297.738 M233.802 297.968 C 234.037 298.030,234.422 298.030,234.658 297.968 C 234.893 297.907,234.700 297.856,234.230 297.856 C 233.759 297.856,233.567 297.907,233.802 297.968 M82.550 300.682 C 82.484 300.789,82.808 300.832,83.269 300.778 C 83.730 300.724,84.108 300.637,84.108 300.584 C 84.108 300.400,82.668 300.491,82.550 300.682 M95.019 300.682 C 94.954 300.789,95.277 300.832,95.738 300.778 C 96.200 300.724,96.577 300.637,96.577 300.584 C 96.577 300.400,95.138 300.491,95.019 300.682 M107.489 300.682 C 107.423 300.789,107.747 300.832,108.208 300.778 C 108.669 300.724,109.046 300.637,109.046 300.584 C 109.046 300.400,107.607 300.491,107.489 300.682 M127.323 300.668 C 127.894 300.719,128.829 300.719,129.401 300.668 C 129.972 300.617,129.505 300.574,128.362 300.574 C 127.219 300.574,126.751 300.617,127.323 300.668 M137.714 300.667 C 138.218 300.720,139.043 300.720,139.548 300.667 C 140.052 300.614,139.639 300.571,138.631 300.571 C 137.622 300.571,137.210 300.614,137.714 300.667 M144.606 300.806 C 144.539 300.981,144.518 302.659,144.560 304.535 L 144.636 307.946 144.690 304.350 L 144.743 300.753 146.760 300.671 L 148.778 300.589 146.753 300.539 C 145.281 300.503,144.695 300.576,144.606 300.806 M155.936 300.668 C 156.511 300.720,157.391 300.719,157.892 300.667 C 158.392 300.614,157.922 300.572,156.846 300.573 C 155.770 300.574,155.360 300.617,155.936 300.668 M163.386 300.658 C 163.622 300.719,164.007 300.719,164.242 300.658 C 164.477 300.596,164.285 300.546,163.814 300.546 C 163.344 300.546,163.151 300.596,163.386 300.658 M183.550 300.664 C 184.071 300.760,184.096 300.888,184.172 303.744 L 184.252 306.724 184.241 303.667 L 184.230 300.611 183.619 300.588 C 183.102 300.568,183.091 300.580,183.550 300.664 M189.670 300.668 C 190.241 300.719,191.177 300.719,191.748 300.668 C 192.320 300.617,191.852 300.574,190.709 300.574 C 189.566 300.574,189.098 300.617,189.670 300.668 M200.061 300.667 C 200.565 300.720,201.391 300.720,201.895 300.667 C 202.399 300.614,201.987 300.571,200.978 300.571 C 199.969 300.571,199.557 300.614,200.061 300.667 M207.396 300.658 C 207.631 300.719,208.017 300.719,208.252 300.658 C 208.487 300.596,208.295 300.546,207.824 300.546 C 207.353 300.546,207.161 300.596,207.396 300.658 M211.645 300.682 C 211.580 300.789,211.903 300.832,212.364 300.778 C 212.826 300.724,213.203 300.637,213.203 300.584 C 213.203 300.400,211.764 300.491,211.645 300.682 M219.377 300.667 C 219.881 300.720,220.706 300.720,221.210 300.667 C 221.715 300.614,221.302 300.571,220.293 300.571 C 219.285 300.571,218.872 300.614,219.377 300.667 M237.107 300.666 C 237.547 300.721,238.207 300.719,238.574 300.664 C 238.941 300.608,238.582 300.563,237.775 300.565 C 236.968 300.566,236.668 300.612,237.107 300.666 M245.416 300.668 C 245.987 300.719,246.922 300.719,247.494 300.668 C 248.065 300.617,247.598 300.574,246.455 300.574 C 245.312 300.574,244.844 300.617,245.416 300.668 M255.807 300.667 C 256.311 300.720,257.136 300.720,257.641 300.667 C 258.145 300.614,257.732 300.571,256.724 300.571 C 255.715 300.571,255.303 300.614,255.807 300.667 M262.699 300.806 C 262.632 300.981,262.611 302.659,262.653 304.535 L 262.729 307.946 262.783 304.350 L 262.836 300.753 264.853 300.671 L 266.870 300.589 264.846 300.539 C 263.374 300.503,262.788 300.576,262.699 300.806 M274.028 300.668 C 274.604 300.720,275.484 300.719,275.984 300.667 C 276.485 300.614,276.015 300.572,274.939 300.573 C 273.863 300.574,273.453 300.617,274.028 300.668 M289.676 300.668 C 290.251 300.720,291.132 300.719,291.632 300.667 C 292.133 300.614,291.663 300.572,290.587 300.573 C 289.511 300.574,289.101 300.617,289.676 300.668 M298.476 300.666 C 298.916 300.721,299.576 300.719,299.943 300.664 C 300.311 300.608,299.951 300.563,299.144 300.565 C 298.337 300.566,298.037 300.612,298.476 300.666 M149.703 302.812 C 149.705 303.484,149.753 303.730,149.809 303.358 C 149.865 302.987,149.863 302.437,149.805 302.136 C 149.747 301.835,149.701 302.139,149.703 302.812 M267.796 302.812 C 267.798 303.484,267.845 303.730,267.902 303.358 C 267.958 302.987,267.956 302.437,267.898 302.136 C 267.840 301.835,267.794 302.139,267.796 302.812 M127.930 302.934 C 127.930 303.405,127.980 303.597,128.041 303.362 C 128.103 303.127,128.103 302.741,128.041 302.506 C 127.980 302.271,127.930 302.463,127.930 302.934 M246.022 302.934 C 246.022 303.405,246.073 303.597,246.134 303.362 C 246.196 303.127,246.196 302.741,246.134 302.506 C 246.073 302.271,246.022 302.463,246.022 302.934 M238.713 304.156 C 238.713 305.165,238.756 305.578,238.809 305.073 C 238.862 304.569,238.862 303.744,238.809 303.240 C 238.756 302.735,238.713 303.148,238.713 304.156 M289.324 304.156 C 289.324 305.165,289.367 305.578,289.420 305.073 C 289.473 304.569,289.473 303.744,289.420 303.240 C 289.367 302.735,289.324 303.148,289.324 304.156 M300.082 304.156 C 300.082 305.165,300.125 305.578,300.178 305.073 C 300.231 304.569,300.231 303.744,300.178 303.240 C 300.125 302.735,300.082 303.148,300.082 304.156 M235.290 304.890 C 235.290 305.899,235.333 306.311,235.386 305.807 C 235.439 305.303,235.439 304.477,235.386 303.973 C 235.333 303.469,235.290 303.881,235.290 304.890 M296.659 304.890 C 296.659 305.899,296.702 306.311,296.755 305.807 C 296.808 305.303,296.808 304.477,296.755 303.973 C 296.702 303.469,296.659 303.881,296.659 304.890 M138.081 305.067 C 138.518 305.121,139.233 305.121,139.670 305.067 C 140.107 305.013,139.749 304.968,138.875 304.968 C 138.001 304.968,137.644 305.013,138.081 305.067 M200.428 305.067 C 200.865 305.121,201.580 305.121,202.017 305.067 C 202.454 305.013,202.097 304.968,201.222 304.968 C 200.348 304.968,199.991 305.013,200.428 305.067 M219.743 305.067 C 220.180 305.121,220.895 305.121,221.333 305.067 C 221.770 305.013,221.412 304.968,220.538 304.968 C 219.664 304.968,219.306 305.013,219.743 305.067 M256.174 305.067 C 256.611 305.121,257.326 305.121,257.763 305.067 C 258.200 305.013,257.842 304.968,256.968 304.968 C 256.094 304.968,255.737 305.013,256.174 305.067 M127.972 305.473 C 127.901 305.660,127.885 306.292,127.937 306.879 L 128.032 307.946 128.075 306.683 C 128.100 305.937,128.242 305.369,128.423 305.296 C 128.662 305.200,128.661 305.169,128.415 305.154 C 128.243 305.143,128.044 305.287,127.972 305.473 M246.065 305.473 C 245.993 305.660,245.978 306.292,246.030 306.879 L 246.125 307.946 246.168 306.683 C 246.193 305.937,246.335 305.369,246.516 305.296 C 246.755 305.200,246.754 305.169,246.508 305.154 C 246.336 305.143,246.136 305.287,246.065 305.473 M229.890 307.993 C 230.125 308.054,230.510 308.054,230.746 307.993 C 230.981 307.931,230.789 307.881,230.318 307.881 C 229.847 307.881,229.655 307.931,229.890 307.993 " stroke="none" fill="#ffffff" fill-rule="evenodd"></path><path id="path4" d="M145.293 216.809 C 147.411 216.850,150.877 216.850,152.995 216.809 C 155.113 216.768,153.380 216.735,149.144 216.735 C 144.908 216.735,143.175 216.768,145.293 216.809 M181.613 216.808 C 182.729 216.853,184.489 216.853,185.525 216.807 C 186.561 216.762,185.648 216.725,183.496 216.725 C 181.345 216.725,180.497 216.763,181.613 216.808 M204.723 216.809 C 207.657 216.848,212.388 216.848,215.237 216.809 C 218.085 216.770,215.685 216.738,209.902 216.738 C 204.120 216.738,201.789 216.770,204.723 216.809 M225.785 216.932 C 225.721 217.100,225.697 226.094,225.733 236.919 L 225.798 256.601 225.857 236.741 L 225.917 216.881 230.868 216.809 L 235.819 216.737 230.860 216.682 C 227.077 216.639,225.874 216.698,225.785 216.932 M246.149 216.809 C 249.410 216.848,254.746 216.848,258.007 216.809 C 261.268 216.771,258.600 216.739,252.078 216.739 C 245.556 216.739,242.888 216.771,246.149 216.809 M289.914 216.809 C 292.100 216.849,295.675 216.849,297.861 216.809 C 300.046 216.768,298.258 216.735,293.888 216.735 C 289.517 216.735,287.729 216.768,289.914 216.809 M220.391 221.883 C 220.392 223.900,220.429 224.692,220.475 223.644 C 220.521 222.596,220.521 220.945,220.475 219.977 C 220.428 219.008,220.391 219.866,220.391 221.883 M192.772 219.621 L 192.054 220.416 192.848 219.698 C 193.285 219.303,193.643 218.945,193.643 218.903 C 193.643 218.714,193.441 218.880,192.772 219.621 M310.129 230.196 C 310.129 233.154,310.164 234.331,310.207 232.810 C 310.250 231.290,310.250 228.870,310.207 227.431 C 310.164 225.993,310.128 227.237,310.129 230.196 M132.631 236.186 C 132.631 242.304,132.663 244.807,132.701 241.748 C 132.740 238.689,132.740 233.683,132.701 230.623 C 132.663 227.564,132.631 230.067,132.631 236.186 M277.621 240.831 C 277.621 249.505,277.652 253.053,277.689 248.716 C 277.727 244.380,277.727 237.283,277.689 232.946 C 277.652 228.609,277.621 232.158,277.621 240.831 M183.924 226.825 C 184.294 226.882,184.899 226.882,185.269 226.825 C 185.639 226.769,185.336 226.724,184.597 226.724 C 183.857 226.724,183.554 226.769,183.924 226.825 M235.808 247.188 C 235.808 252.366,235.840 254.483,235.880 251.895 C 235.919 249.306,235.919 245.070,235.880 242.482 C 235.840 239.893,235.808 242.011,235.808 247.188 M240.201 243.521 C 240.201 246.278,240.237 247.405,240.280 246.027 C 240.324 244.649,240.324 242.393,240.280 241.015 C 240.237 239.636,240.201 240.764,240.201 243.521 M190.324 251.467 C 190.324 254.291,190.359 255.413,190.403 253.960 C 190.446 252.507,190.446 250.196,190.402 248.825 C 190.359 247.454,190.323 248.643,190.324 251.467 M270.158 253.973 L 269.315 254.890 270.232 254.047 C 271.086 253.263,271.262 253.056,271.075 253.056 C 271.034 253.056,270.621 253.469,270.158 253.973 M190.334 272.616 C 190.334 279.407,190.365 282.185,190.403 278.790 C 190.442 275.394,190.442 269.838,190.403 266.443 C 190.365 263.047,190.334 265.825,190.334 272.616 M172.814 270.598 C 174.469 270.641,177.109 270.641,178.682 270.598 C 180.254 270.556,178.900 270.521,175.672 270.521 C 172.445 270.521,171.159 270.556,172.814 270.598 M208.755 270.598 C 210.410 270.641,213.050 270.641,214.623 270.598 C 216.195 270.556,214.841 270.521,211.614 270.521 C 208.386 270.521,207.100 270.556,208.755 270.598 M234.061 270.598 C 235.783 270.641,238.534 270.640,240.173 270.598 C 241.813 270.556,240.403 270.522,237.042 270.522 C 233.680 270.522,232.338 270.556,234.061 270.598 M260.589 270.598 C 262.244 270.641,264.884 270.641,266.457 270.598 C 268.029 270.556,266.675 270.521,263.447 270.521 C 260.220 270.521,258.934 270.556,260.589 270.598 M285.157 270.597 C 286.070 270.644,287.500 270.644,288.335 270.596 C 289.170 270.549,288.423 270.510,286.675 270.511 C 284.927 270.511,284.244 270.550,285.157 270.597 M301.039 270.599 C 303.157 270.639,306.623 270.639,308.741 270.599 C 310.859 270.558,309.126 270.525,304.890 270.525 C 300.654 270.525,298.921 270.558,301.039 270.599 M200.109 284.230 C 200.109 288.667,200.142 290.517,200.183 288.341 C 200.223 286.164,200.223 282.533,200.183 280.272 C 200.143 278.011,200.110 279.792,200.109 284.230 M225.788 292.543 C 225.788 301.149,225.818 304.634,225.856 300.288 C 225.893 295.941,225.893 288.900,225.856 284.640 C 225.818 280.380,225.788 283.936,225.788 292.543 M171.227 280.685 C 171.227 281.559,171.272 281.916,171.326 281.479 C 171.380 281.042,171.380 280.327,171.326 279.890 C 171.272 279.453,171.227 279.811,171.227 280.685 M312.292 287.775 C 312.292 288.380,312.339 288.628,312.397 288.325 C 312.456 288.023,312.456 287.528,312.397 287.225 C 312.339 286.922,312.292 287.170,312.292 287.775 M274.416 293.154 C 274.416 294.432,274.457 294.954,274.507 294.315 C 274.558 293.677,274.558 292.631,274.507 291.993 C 274.457 291.354,274.416 291.877,274.416 293.154 M235.269 297.968 C 235.504 298.030,235.889 298.030,236.125 297.968 C 236.360 297.907,236.167 297.856,235.697 297.856 C 235.226 297.856,235.034 297.907,235.269 297.968 M85.788 300.917 C 85.496 301.289,85.500 301.308,85.819 301.065 C 86.021 300.912,86.406 300.732,86.675 300.666 C 87.139 300.552,87.138 300.544,86.644 300.517 C 86.358 300.502,85.972 300.682,85.788 300.917 M98.257 300.917 C 97.965 301.289,97.970 301.308,98.289 301.065 C 98.490 300.912,98.875 300.732,99.144 300.666 C 99.609 300.552,99.607 300.544,99.113 300.517 C 98.827 300.502,98.442 300.682,98.257 300.917 M110.727 300.917 C 110.435 301.289,110.439 301.308,110.758 301.065 C 110.960 300.912,111.345 300.732,111.614 300.666 C 112.078 300.552,112.077 300.544,111.583 300.517 C 111.296 300.502,110.911 300.682,110.727 300.917 M158.492 301.467 C 158.492 301.938,158.542 302.130,158.604 301.895 C 158.665 301.660,158.665 301.274,158.604 301.039 C 158.542 300.804,158.492 300.996,158.492 301.467 M162.948 304.156 L 162.958 307.702 163.753 307.778 L 164.548 307.855 164.494 304.233 L 164.440 300.611 164.365 304.095 L 164.290 307.579 163.692 307.579 L 163.094 307.579 163.015 304.095 L 162.937 300.611 162.948 304.156 M182.597 302.959 C 182.554 304.183,182.599 305.311,182.698 305.465 C 182.797 305.620,182.879 304.618,182.881 303.240 C 182.886 300.134,182.703 299.954,182.597 302.959 M188.620 304.156 L 188.631 307.702 189.916 307.723 L 191.201 307.744 189.984 307.649 L 188.766 307.554 188.688 304.083 L 188.609 300.611 188.620 304.156 M276.585 301.467 C 276.585 301.938,276.635 302.130,276.697 301.895 C 276.758 301.660,276.758 301.274,276.697 301.039 C 276.635 300.804,276.585 300.996,276.585 301.467 M154.110 302.812 C 154.111 303.619,154.157 303.919,154.211 303.480 C 154.266 303.040,154.265 302.380,154.209 302.013 C 154.153 301.645,154.109 302.005,154.110 302.812 M272.203 302.812 C 272.204 303.619,272.250 303.919,272.304 303.480 C 272.359 303.040,272.358 302.380,272.302 302.013 C 272.246 301.645,272.202 302.005,272.203 302.812 M131.372 303.056 C 131.373 303.863,131.419 304.164,131.473 303.724 C 131.527 303.285,131.526 302.625,131.471 302.257 C 131.415 301.890,131.370 302.249,131.372 303.056 M135.788 304.279 C 135.789 305.758,135.829 306.332,135.878 305.553 C 135.926 304.775,135.926 303.565,135.877 302.864 C 135.828 302.163,135.788 302.800,135.788 304.279 M179.084 304.706 L 179.095 307.702 179.829 307.702 L 180.562 307.702 180.696 305.501 C 180.769 304.291,180.745 303.136,180.642 302.934 C 180.539 302.732,180.452 303.695,180.448 305.073 C 180.440 307.573,180.439 307.579,179.836 307.579 L 179.233 307.579 179.152 304.645 L 179.072 301.711 179.084 304.706 M193.733 304.156 C 193.733 305.568,193.774 306.146,193.823 305.440 C 193.873 304.734,193.873 303.579,193.823 302.873 C 193.774 302.167,193.733 302.744,193.733 304.156 M198.135 304.279 C 198.136 305.758,198.176 306.332,198.225 305.553 C 198.274 304.775,198.273 303.565,198.224 302.864 C 198.175 302.163,198.135 302.800,198.135 304.279 M217.451 304.279 C 217.451 305.758,217.492 306.332,217.540 305.553 C 217.589 304.775,217.589 303.565,217.539 302.864 C 217.490 302.163,217.450 302.800,217.451 304.279 M249.465 303.056 C 249.466 303.863,249.512 304.164,249.566 303.724 C 249.620 303.285,249.619 302.625,249.563 302.257 C 249.508 301.890,249.463 302.249,249.465 303.056 M253.881 304.279 C 253.882 305.758,253.922 306.332,253.971 305.553 C 254.019 304.775,254.019 303.565,253.970 302.864 C 253.920 302.163,253.881 302.800,253.881 304.279 M305.978 304.706 L 305.990 307.702 306.724 307.702 L 307.457 307.702 307.592 305.623 C 307.666 304.480,307.641 303.380,307.538 303.178 C 307.435 302.977,307.346 303.884,307.342 305.196 C 307.335 307.565,307.331 307.579,306.731 307.579 L 306.128 307.579 306.047 304.645 L 305.967 301.711 305.978 304.706 M313.011 304.584 L 312.958 307.579 312.347 307.579 C 311.737 307.579,311.736 307.574,311.732 305.196 C 311.730 303.884,311.648 302.938,311.549 303.092 C 311.007 303.939,311.599 307.700,312.287 307.779 C 313.183 307.882,313.234 307.681,313.141 304.386 L 313.063 301.589 313.011 304.584 M290.529 302.131 C 290.901 302.188,291.451 302.186,291.752 302.128 C 292.052 302.070,291.748 302.024,291.076 302.026 C 290.403 302.028,290.157 302.075,290.529 302.131 M190.083 304.279 L 190.098 306.235 191.139 306.259 L 192.180 306.283 191.210 306.184 L 190.239 306.085 190.154 304.204 L 190.068 302.323 190.083 304.279 M192.258 304.156 C 192.258 305.165,192.301 305.578,192.354 305.073 C 192.407 304.569,192.407 303.744,192.354 303.240 C 192.301 302.735,192.258 303.148,192.258 304.156 M86.312 303.103 C 86.310 303.398,86.418 303.707,86.553 303.790 C 86.864 303.982,86.864 303.416,86.553 302.934 C 86.360 302.636,86.315 302.667,86.312 303.103 M98.781 303.103 C 98.779 303.398,98.888 303.707,99.022 303.790 C 99.333 303.982,99.333 303.416,99.022 302.934 C 98.829 302.636,98.784 302.667,98.781 303.103 M111.251 303.103 C 111.249 303.398,111.357 303.707,111.491 303.790 C 111.803 303.982,111.803 303.416,111.491 302.934 C 111.299 302.636,111.254 302.667,111.251 303.103 M158.511 305.501 C 158.512 306.308,158.558 306.609,158.612 306.169 C 158.667 305.730,158.666 305.070,158.610 304.702 C 158.554 304.335,158.510 304.694,158.511 305.501 M171.153 304.462 C 171.150 304.774,171.332 304.882,171.822 304.862 C 172.337 304.840,172.380 304.805,172.005 304.711 C 171.736 304.644,171.435 304.464,171.336 304.312 C 171.222 304.136,171.155 304.191,171.153 304.462 M276.604 305.501 C 276.605 306.308,276.651 306.609,276.705 306.169 C 276.760 305.730,276.759 305.070,276.703 304.702 C 276.647 304.335,276.603 304.694,276.604 305.501 M88.020 305.012 C 88.020 305.214,88.130 305.379,88.264 305.379 C 88.399 305.379,88.509 305.214,88.509 305.012 C 88.509 304.811,88.399 304.645,88.264 304.645 C 88.130 304.645,88.020 304.811,88.020 305.012 M100.489 305.012 C 100.489 305.214,100.599 305.379,100.733 305.379 C 100.868 305.379,100.978 305.214,100.978 305.012 C 100.978 304.811,100.868 304.645,100.733 304.645 C 100.599 304.645,100.489 304.811,100.489 305.012 M112.958 305.012 C 112.958 305.214,113.068 305.379,113.203 305.379 C 113.337 305.379,113.447 305.214,113.447 305.012 C 113.447 304.811,113.337 304.645,113.203 304.645 C 113.068 304.645,112.958 304.811,112.958 305.012 M137.262 305.623 C 137.285 306.203,137.362 306.236,138.753 306.252 L 140.220 306.270 138.829 306.180 C 137.624 306.102,137.425 306.018,137.339 305.551 C 137.256 305.103,137.243 305.115,137.262 305.623 M156.902 305.470 C 157.016 306.066,156.973 306.089,155.588 306.161 C 154.169 306.234,154.156 306.242,154.080 307.029 L 154.003 307.824 155.914 307.775 L 157.824 307.727 156.051 307.642 C 154.365 307.562,154.279 307.529,154.279 306.970 C 154.279 306.425,154.383 306.376,155.682 306.308 C 157.103 306.234,157.659 305.728,157.022 305.090 C 156.868 304.937,156.826 305.071,156.902 305.470 M199.610 305.623 C 199.632 306.203,199.710 306.236,201.100 306.252 L 202.567 306.270 201.177 306.180 C 199.971 306.102,199.773 306.018,199.686 305.551 C 199.603 305.103,199.590 305.115,199.610 305.623 M218.925 305.623 C 218.947 306.203,219.025 306.236,220.416 306.252 L 221.883 306.270 220.492 306.180 C 219.286 306.102,219.088 306.018,219.001 305.551 C 218.918 305.103,218.905 305.115,218.925 305.623 M255.355 305.623 C 255.378 306.203,255.455 306.236,256.846 306.252 L 258.313 306.270 256.922 306.180 C 255.717 306.102,255.518 306.018,255.432 305.551 C 255.349 305.103,255.336 305.115,255.355 305.623 M274.995 305.470 C 275.109 306.066,275.066 306.089,273.681 306.161 C 272.262 306.234,272.249 306.242,272.173 307.029 L 272.096 307.824 274.007 307.775 L 275.917 307.727 274.144 307.642 C 272.458 307.562,272.372 307.529,272.372 306.970 C 272.372 306.425,272.476 306.376,273.775 306.308 C 275.196 306.234,275.752 305.728,275.114 305.090 C 274.961 304.937,274.919 305.071,274.995 305.470 M128.912 305.303 C 129.147 305.365,129.532 305.365,129.768 305.303 C 130.003 305.242,129.811 305.191,129.340 305.191 C 128.869 305.191,128.677 305.242,128.912 305.303 M247.005 305.303 C 247.240 305.365,247.625 305.365,247.861 305.303 C 248.096 305.242,247.903 305.191,247.433 305.191 C 246.962 305.191,246.770 305.242,247.005 305.303 M237.775 306.112 L 236.797 306.288 237.700 306.322 C 238.196 306.341,238.670 306.247,238.753 306.112 C 238.836 305.978,238.870 305.884,238.829 305.903 C 238.787 305.922,238.313 306.016,237.775 306.112 M289.462 306.187 C 289.571 306.295,290.308 306.349,291.101 306.306 L 292.543 306.229 290.904 306.109 C 290.002 306.044,289.353 306.079,289.462 306.187 M299.144 306.112 L 298.166 306.288 299.069 306.322 C 299.565 306.341,300.039 306.247,300.122 306.112 C 300.205 305.978,300.239 305.884,300.198 305.903 C 300.156 305.922,299.682 306.016,299.144 306.112 M170.905 306.249 C 171.813 306.447,173.060 306.481,172.951 306.306 C 172.886 306.199,172.316 306.125,171.685 306.141 C 171.054 306.156,170.703 306.205,170.905 306.249 M147.837 307.641 C 147.900 307.741,148.329 307.824,148.792 307.824 C 149.255 307.824,149.633 307.741,149.633 307.641 C 149.633 307.540,149.204 307.457,148.679 307.457 C 148.154 307.457,147.775 307.540,147.837 307.641 M168.704 307.629 C 168.704 307.736,169.089 307.824,169.560 307.824 C 170.031 307.824,170.416 307.781,170.416 307.728 C 170.416 307.676,170.031 307.588,169.560 307.533 C 169.089 307.478,168.704 307.521,168.704 307.629 M265.930 307.641 C 265.993 307.741,266.422 307.824,266.885 307.824 C 267.348 307.824,267.726 307.741,267.726 307.641 C 267.726 307.540,267.297 307.457,266.772 307.457 C 266.246 307.457,265.868 307.540,265.930 307.641 M126.711 307.748 C 126.947 307.809,127.332 307.809,127.567 307.748 C 127.803 307.687,127.610 307.636,127.139 307.636 C 126.669 307.636,126.476 307.687,126.711 307.748 M137.598 307.759 C 138.173 307.810,139.053 307.810,139.554 307.757 C 140.055 307.705,139.584 307.662,138.509 307.663 C 137.433 307.664,137.023 307.707,137.598 307.759 M145.049 307.748 C 145.284 307.809,145.669 307.809,145.905 307.748 C 146.140 307.687,145.947 307.636,145.477 307.636 C 145.006 307.636,144.814 307.687,145.049 307.748 M173.655 307.748 C 173.891 307.809,174.276 307.809,174.511 307.748 C 174.746 307.687,174.554 307.636,174.083 307.636 C 173.612 307.636,173.420 307.687,173.655 307.748 M199.945 307.759 C 200.520 307.810,201.401 307.810,201.901 307.757 C 202.402 307.705,201.932 307.662,200.856 307.663 C 199.780 307.664,199.370 307.707,199.945 307.759 M219.261 307.759 C 219.836 307.810,220.716 307.810,221.217 307.757 C 221.717 307.705,221.247 307.662,220.171 307.663 C 219.095 307.664,218.686 307.707,219.261 307.759 M236.853 307.756 C 237.287 307.810,238.057 307.811,238.564 307.758 C 239.072 307.705,238.716 307.661,237.775 307.660 C 236.834 307.659,236.419 307.702,236.853 307.756 M244.804 307.748 C 245.040 307.809,245.425 307.809,245.660 307.748 C 245.895 307.687,245.703 307.636,245.232 307.636 C 244.762 307.636,244.569 307.687,244.804 307.748 M255.691 307.759 C 256.266 307.810,257.146 307.810,257.647 307.757 C 258.148 307.705,257.677 307.662,256.601 307.663 C 255.526 307.664,255.116 307.707,255.691 307.759 M263.142 307.748 C 263.377 307.809,263.762 307.809,263.998 307.748 C 264.233 307.687,264.040 307.636,263.570 307.636 C 263.099 307.636,262.906 307.687,263.142 307.748 M289.676 307.759 C 290.251 307.810,291.132 307.810,291.632 307.757 C 292.133 307.705,291.663 307.662,290.587 307.663 C 289.511 307.664,289.101 307.707,289.676 307.759 M298.222 307.756 C 298.656 307.810,299.426 307.811,299.933 307.758 C 300.441 307.705,300.086 307.661,299.144 307.660 C 298.203 307.659,297.788 307.702,298.222 307.756 M227.323 308.001 C 227.760 308.055,228.475 308.055,228.912 308.001 C 229.349 307.947,228.991 307.902,228.117 307.902 C 227.243 307.902,226.886 307.947,227.323 308.001 M231.482 307.997 C 231.786 308.055,232.226 308.053,232.460 307.992 C 232.694 307.931,232.445 307.883,231.907 307.886 C 231.369 307.888,231.178 307.938,231.482 307.997 " stroke="none" fill="#ffffff" fill-rule="evenodd"></path></g></svg>